<svg xmlns="http://www.w3.org/2000/svg" width="16" height="55" viewBox="0 0 56 35" fill="none">
  <path fill-rule="evenodd" clip-rule="evenodd" d="M5.5 11.1667C5.5 10.7246 5.67559 10.3007 5.98816 9.98816C6.30072 9.67559 6.72464 9.5 7.16667 9.5H8.83333C9.27536 9.5 9.69928 9.67559 10.0118 9.98816C10.3244 10.3007 10.5 10.7246 10.5 11.1667V14.5H13.8333C14.2754 14.5 14.6993 14.6756 15.0118 14.9882C15.3244 15.3007 15.5 15.7246 15.5 16.1667V17.8333C15.5 18.2754 15.3244 18.6993 15.0118 19.0118C14.6993 19.3244 14.2754 19.5 13.8333 19.5H10.5V22.8333C10.5 23.2754 10.3244 23.6993 10.0118 24.0118C9.69928 24.3244 9.27536 24.5 8.83333 24.5H7.16667C6.72464 24.5 6.30072 24.3244 5.98816 24.0118C5.67559 23.6993 5.5 23.2754 5.5 22.8333V19.5H2.16667C1.72464 19.5 1.30072 19.3244 0.988155 19.0118C0.675595 18.6993 0.5 18.2754 0.5 17.8333V16.1667C0.5 15.7246 0.675595 15.3007 0.988155 14.9882C1.30072 14.6756 1.72464 14.5 2.16667 14.5H5.5V11.1667Z" fill="#0B0B0B"/>
  <path d="M29.5417 0H22.7083C22.2553 0 21.8207 0.179985 21.5004 0.500359C21.18 0.820734 21 1.25526 21 1.70833V32.4583C21 32.9114 21.18 33.3459 21.5004 33.6663C21.8207 33.9867 22.2553 34.1667 22.7083 34.1667H29.5417C29.9947 34.1667 30.4293 33.9867 30.7496 33.6663C31.07 33.3459 31.25 32.9114 31.25 32.4583V1.70833C31.25 1.25526 31.07 0.820734 30.7496 0.500359C30.4293 0.179985 29.9947 0 29.5417 0ZM26.125 32.4583C25.4492 32.4583 24.7887 32.2579 24.2268 31.8825C23.6649 31.5071 23.227 30.9735 22.9684 30.3492C22.7098 29.7249 22.6422 29.0379 22.774 28.3751C22.9058 27.7123 23.2312 27.1035 23.7091 26.6257C24.1869 26.1479 24.7957 25.8225 25.4584 25.6906C26.1212 25.5588 26.8082 25.6265 27.4325 25.8851C28.0568 26.1437 28.5904 26.5816 28.9659 27.1435C29.3413 27.7053 29.5417 28.3659 29.5417 29.0417C29.5417 29.9478 29.1817 30.8169 28.5409 31.4576C27.9002 32.0984 27.0312 32.4583 26.125 32.4583ZM29.5417 17.0833H22.7083V1.70833H29.5417V17.0833ZM27.8333 29.0417C27.8333 29.3795 27.7331 29.7098 27.5454 29.9908C27.3577 30.2717 27.0909 30.4907 26.7788 30.62C26.4666 30.7493 26.1231 30.7831 25.7917 30.7172C25.4603 30.6513 25.1559 30.4886 24.917 30.2496C24.6781 30.0107 24.5154 29.7063 24.4495 29.3749C24.3836 29.0436 24.4174 28.7001 24.5467 28.3879C24.676 28.0758 24.895 27.809 25.1759 27.6212C25.4568 27.4335 25.7871 27.3333 26.125 27.3333C26.5781 27.3333 27.0126 27.5133 27.333 27.8337C27.6533 28.1541 27.8333 28.5886 27.8333 29.0417ZM41.5 0H34.6667C34.2136 0 33.7791 0.179985 33.4587 0.500359C33.1383 0.820734 32.9583 1.25526 32.9583 1.70833V32.4583C32.9583 32.9114 33.1383 33.3459 33.4587 33.6663C33.7791 33.9867 34.2136 34.1667 34.6667 34.1667H41.5C41.9531 34.1667 42.3876 33.9867 42.708 33.6663C43.0283 33.3459 43.2083 32.9114 43.2083 32.4583V1.70833C43.2083 1.25526 43.0283 0.820734 42.708 0.500359C42.3876 0.179985 41.9531 0 41.5 0ZM38.0833 32.4583C37.4076 32.4583 36.747 32.2579 36.1851 31.8825C35.6233 31.5071 35.1853 30.9735 34.9267 30.3492C34.6681 29.7249 34.6005 29.0379 34.7323 28.3751C34.8641 27.7123 35.1896 27.1035 35.6674 26.6257C36.1452 26.1479 36.754 25.8225 37.4168 25.6906C38.0795 25.5588 38.7665 25.6265 39.3908 25.8851C40.0151 26.1437 40.5488 26.5816 40.9242 27.1435C41.2996 27.7053 41.5 28.3659 41.5 29.0417C41.5 29.9478 41.14 30.8169 40.4993 31.4576C39.8585 32.0984 38.9895 32.4583 38.0833 32.4583ZM41.5 17.0833H34.6667V1.70833H41.5V17.0833ZM39.7917 29.0417C39.7917 29.3795 39.6915 29.7098 39.5038 29.9908C39.316 30.2717 39.0492 30.4907 38.7371 30.62C38.4249 30.7493 38.0814 30.7831 37.7501 30.7172C37.4187 30.6513 37.1143 30.4886 36.8754 30.2496C36.6364 30.0107 36.4737 29.7063 36.4078 29.3749C36.3419 29.0436 36.3757 28.7001 36.505 28.3879C36.6343 28.0758 36.8533 27.809 37.1342 27.6212C37.4152 27.4335 37.7455 27.3333 38.0833 27.3333C38.5364 27.3333 38.9709 27.5133 39.2913 27.8337C39.6117 28.1541 39.7917 28.5886 39.7917 29.0417ZM53.4583 0H46.625C46.1719 0 45.7374 0.179985 45.417 0.500359C45.0966 0.820734 44.9167 1.25526 44.9167 1.70833V32.4583C44.9167 32.9114 45.0966 33.3459 45.417 33.6663C45.7374 33.9867 46.1719 34.1667 46.625 34.1667H53.4583C53.9114 34.1667 54.3459 33.9867 54.6663 33.6663C54.9867 33.3459 55.1667 32.9114 55.1667 32.4583V1.70833C55.1667 1.25526 54.9867 0.820734 54.6663 0.500359C54.3459 0.179985 53.9114 0 53.4583 0ZM50.0417 32.4583C49.3659 32.4583 48.7053 32.2579 48.1435 31.8825C47.5816 31.5071 47.1437 30.9735 46.8851 30.3492C46.6265 29.7249 46.5588 29.0379 46.6906 28.3751C46.8225 27.7123 47.1479 27.1035 47.6257 26.6257C48.1035 26.1479 48.7123 25.8225 49.3751 25.6906C50.0379 25.5588 50.7249 25.6265 51.3492 25.8851C51.9735 26.1437 52.5071 26.5816 52.8825 27.1435C53.2579 27.7053 53.4583 28.3659 53.4583 29.0417C53.4583 29.9478 53.0984 30.8169 52.4576 31.4576C51.8169 32.0984 50.9478 32.4583 50.0417 32.4583ZM53.4583 17.0833H46.625V1.70833H53.4583V17.0833ZM51.75 29.0417C51.75 29.3795 51.6498 29.7098 51.4621 29.9908C51.2744 30.2717 51.0076 30.4907 50.6954 30.62C50.3833 30.7493 50.0398 30.7831 49.7084 30.7172C49.377 30.6513 49.0726 30.4886 48.8337 30.2496C48.5948 30.0107 48.4321 29.7063 48.3662 29.3749C48.3002 29.0436 48.3341 28.7001 48.4634 28.3879C48.5927 28.0758 48.8116 27.809 49.0926 27.6212C49.3735 27.4335 49.7038 27.3333 50.0417 27.3333C50.4947 27.3333 50.9293 27.5133 51.2496 27.8337C51.57 28.1541 51.75 28.5886 51.75 29.0417Z" fill="#0B0B0B"/>
</svg>