<svg xmlns="http://www.w3.org/2000/svg" width="20" height="20" viewBox="0 0 20 20" fill="none">
  <path d="M10.8335 4.65503L6.91103 8.57753C6.83366 8.6549 6.77229 8.74675 6.73042 8.84784C6.68854 8.94893 6.66699 9.05728 6.66699 9.1667C6.66699 9.27611 6.68854 9.38446 6.73042 9.48555C6.77229 9.58664 6.83366 9.67849 6.91103 9.75586C6.9884 9.83323 7.08026 9.89461 7.18135 9.93648C7.28243 9.97835 7.39078 9.9999 7.5002 9.9999C7.60962 9.9999 7.71797 9.97835 7.81905 9.93648C7.92014 9.89461 8.012 9.83323 8.08937 9.75586L10.0002 7.84503V14.1667C10.0002 14.3877 10.088 14.5997 10.2443 14.756C10.4006 14.9122 10.6125 15 10.8335 15C11.0545 15 11.2665 14.9122 11.4228 14.756C11.5791 14.5997 11.6669 14.3877 11.6669 14.1667V7.84503L13.5777 9.75586C13.6549 9.83352 13.7467 9.89514 13.8478 9.93719C13.9489 9.97924 14.0574 10.0009 14.1669 10.0009C14.2764 10.0009 14.3848 9.97924 14.4859 9.93719C14.587 9.89514 14.6788 9.83352 14.756 9.75586C14.8335 9.67854 14.8949 9.5867 14.9369 9.48561C14.9788 9.38451 15.0004 9.27614 15.0004 9.1667C15.0004 9.05725 14.9788 8.94888 14.9369 8.84778C14.8949 8.74669 14.8335 8.65485 14.756 8.57753L10.8335 4.65503Z" fill="black"/>
</svg>