<svg xmlns="http://www.w3.org/2000/svg" width="47" height="55" viewBox="0 0 47 55" fill="none">
<path d="M29.3751 34.3747L35.9923 26.6311C36.3781 26.1798 36.8361 25.8218 37.3401 25.5777C37.8441 25.3335 38.3843 25.2079 38.9298 25.208H39.1667C40.2055 25.208 41.2017 25.6909 41.9362 26.5504C42.6708 27.41 43.0834 28.5758 43.0834 29.7913C43.0834 31.0069 42.6708 32.1727 41.9362 33.0322C41.2017 33.8918 40.2055 34.3747 39.1667 34.3747H7.83341C6.79465 34.3747 5.79843 33.8918 5.06391 33.0322C4.3294 32.1727 3.91675 31.0069 3.91675 29.7913C3.91675 28.5758 4.3294 27.41 5.06391 26.5504C5.79843 25.6909 6.79465 25.208 7.83341 25.208H16.6753C19.791 25.2082 22.7792 26.6565 24.9825 29.2345L29.3751 34.3747ZM5.87508 34.3747H41.1251V38.958C41.1251 40.7814 40.5061 42.5301 39.4043 43.8194C38.3026 45.1087 36.8082 45.833 35.2501 45.833H11.7501C10.1919 45.833 8.69761 45.1087 7.59583 43.8194C6.49405 42.5301 5.87508 40.7814 5.87508 38.958V34.3747Z" stroke="black" stroke-width="2.67" stroke-linecap="round" stroke-linejoin="round"/>
<path d="M23.5 9.1665C14.4466 9.1665 6.9873 13.1907 5.98855 22.9165C5.8593 24.1769 6.7523 25.2082 7.8333 25.2082H39.1666C40.2476 25.2082 41.1406 24.1769 41.0114 22.9165C40.0126 13.1907 32.5533 9.1665 23.5 9.1665Z" stroke="black" stroke-width="2.67" stroke-linecap="round" stroke-linejoin="round"/>
</svg>