<svg xmlns="http://www.w3.org/2000/svg" width="41" height="40" viewBox="0 0 41 40" fill="none">
<g clip-path="url(#clip0_104_298)">
<path d="M39.6228 19.3337C38.7151 18.1511 37.4254 17.3015 35.9618 16.9221C36.6751 14.8991 37.2022 12.8181 37.5369 10.7037C37.6462 9.93519 37.5712 9.15236 37.3178 8.41689C37.0643 7.68142 36.6394 7.01338 36.0763 6.46536C35.5133 5.91735 34.8275 5.50432 34.0731 5.25879C33.3186 5.01325 32.5161 4.94192 31.7286 5.05041C31.5133 5.07874 30.8744 5.17041 30.0014 5.33541C30.542 4.16783 30.7981 2.89401 30.7497 1.61374C30.7425 1.39487 30.6912 1.17952 30.5987 0.979995C30.5062 0.780465 30.3744 0.600662 30.2107 0.45085C30.047 0.301038 29.8546 0.184152 29.6446 0.106865C29.4346 0.0295776 29.211 -0.00659673 28.9867 0.000407102C28.7623 0.00741094 28.5416 0.0574558 28.3371 0.147684C28.1326 0.237913 27.9483 0.366558 27.7947 0.526275C27.6412 0.685992 27.5214 0.873652 27.4421 1.07854C27.3629 1.28343 27.3258 1.50154 27.333 1.72041C27.3622 2.52552 27.1928 3.3257 26.8393 4.05374C26.5922 3.40317 26.2398 2.79545 25.7955 2.25374C25.0403 1.41524 24.0817 0.774825 23.0073 0.391079C21.933 0.00733294 20.7771 -0.107503 19.6455 0.0570738C18.4047 0.154242 17.2187 0.597401 16.2288 1.33374C15.1098 0.512396 13.756 0.052124 12.3561 0.0170738C10.5797 -0.150892 8.80752 0.37469 7.42752 1.47874C6.7268 2.08736 6.16106 2.82934 5.76504 3.65908C5.36903 4.48883 5.15111 5.38882 5.12468 6.30374C5.0778 7.76877 5.51501 9.20968 6.37176 10.4137C5.32951 11.2856 4.52046 12.3918 4.01448 13.637C3.50849 14.8821 3.3208 16.2287 3.4676 17.5604C2.11657 18.2949 1.06371 19.4582 0.483838 20.857C-0.0960294 22.2559 -0.16801 23.8061 0.279848 25.2504C1.45007 29.2229 3.62814 32.8434 6.61264 35.7771C9.47582 38.5008 13.3215 40.0176 17.3205 40.0004H23.6789C27.6774 40.0179 31.5227 38.501 34.385 35.7771C37.3706 32.844 39.5494 29.2233 40.7195 25.2504C41.0245 24.2493 41.0842 23.1923 40.8937 22.1646C40.7032 21.1369 40.2678 20.1672 39.6228 19.3337ZM32.2035 8.35041C32.4678 8.31561 32.7369 8.3409 32.9896 8.42433C33.2423 8.50775 33.4718 8.64704 33.6602 8.83132C33.8486 9.01559 33.9907 9.23987 34.0756 9.48661C34.1604 9.73336 34.1856 9.99591 34.1493 10.2537C33.791 12.4424 33.2101 14.5908 32.4153 16.6671H28.0403L30.2491 14.5121C30.5603 14.1977 30.7325 13.7767 30.7286 13.3397C30.7247 12.9027 30.5451 12.4847 30.2283 12.1757C29.9116 11.8667 29.4831 11.6914 29.0352 11.6876C28.5873 11.6838 28.1558 11.8518 27.8336 12.1554L23.2091 16.6671H20.5629C20.4381 15.7905 20.5238 14.8976 20.8131 14.0588C21.1025 13.2201 21.5876 12.4584 22.2302 11.8337C22.9597 11.1154 25.7562 9.16707 32.2035 8.35041ZM8.54135 6.41541C8.55162 5.95657 8.65765 5.50459 8.85298 5.08707C9.0483 4.66956 9.32882 4.29527 9.67739 3.98707C10.3822 3.47881 11.2578 3.24904 12.1288 3.34374C12.5496 3.32686 12.9692 3.39699 13.3602 3.54951C13.7512 3.70204 14.1047 3.93351 14.3975 4.22874C14.628 4.48001 14.9103 4.681 15.2259 4.81857C15.5414 4.95614 15.8832 5.02719 16.2288 5.02707V5.02707C16.5737 5.02541 16.9143 4.95304 17.2286 4.81464C17.543 4.67625 17.8239 4.47492 18.0533 4.22374C18.3081 3.96079 18.6139 3.74982 18.9529 3.60305C19.2919 3.45628 19.6574 3.37664 20.0282 3.36874C20.5929 3.27061 21.1737 3.31059 21.7187 3.4851C22.2636 3.65961 22.7558 3.96321 23.151 4.36874C23.6696 5.01648 23.9403 5.82048 23.9164 6.64207C23.9164 6.75041 23.9164 6.98707 23.9164 6.98707C21.6485 7.78378 19.7113 9.28442 18.4019 11.2587C17.3231 10.0129 15.8878 9.10942 14.2797 8.66404C12.6716 8.21867 10.9638 8.25164 9.37502 8.75874C8.80809 8.10596 8.51087 7.27048 8.54135 6.41541V6.41541ZM6.83302 16.6671C6.83302 15.341 7.37297 14.0692 8.33409 13.1315C9.29522 12.1939 10.5988 11.6671 11.958 11.6671C13.3173 11.6671 14.6208 12.1939 15.5819 13.1315C16.5431 14.0692 17.083 15.341 17.083 16.6671H6.83302ZM37.4395 24.3154C36.4188 27.744 34.5402 30.8712 31.9729 33.4154C29.753 35.5196 26.7739 36.6875 23.6789 36.6671H17.3205C14.2246 36.6868 11.2447 35.519 9.0231 33.4154C6.45562 30.8712 4.57702 27.7441 3.55643 24.3154C3.40328 23.8108 3.37358 23.2782 3.4697 22.7604C3.56583 22.2425 3.78511 21.7539 4.10993 21.3337C4.4251 20.919 4.83572 20.5822 5.3087 20.3507C5.78168 20.1191 6.30381 19.9991 6.83302 20.0004H34.1664C34.6973 19.9975 35.2214 20.1167 35.6963 20.3484C36.1712 20.58 36.5835 20.9176 36.8997 21.3337C37.2222 21.755 37.439 22.2442 37.5328 22.762C37.6265 23.2798 37.5946 23.8118 37.4395 24.3154V24.3154Z" fill="#5FE26C"/>
</g>
<defs>
<clipPath id="clip0_104_298">
<rect width="41" height="40" fill="white"/>
</clipPath>
</defs>
</svg>