<svg xmlns="http://www.w3.org/2000/svg" width="47" height="55" viewBox="0 0 47 55" fill="none">
  <path d="M2.47118e-07 21.6034V18.6569C-0.000104602 17.3681 0.280804 16.0948 0.823039 14.9262C1.36527 13.7577 2.15572 12.7223 3.13897 11.8925C4.12222 11.0627 5.2745 10.4587 6.51505 10.1227C7.75559 9.78664 9.05439 9.7268 10.3204 9.94734C11.1444 7.07988 12.8757 4.5589 15.253 2.76461C17.6303 0.970314 20.5248 0 23.5 0C26.4752 0 29.3697 0.970314 31.747 2.76461C34.1243 4.5589 35.8556 7.07988 36.6796 9.94734C37.9456 9.7268 39.2444 9.78664 40.485 10.1227C41.7255 10.4587 42.8778 11.0627 43.861 11.8925C44.8443 12.7223 45.6347 13.7577 46.177 14.9262C46.7192 16.0948 47.0001 17.3681 47 18.6569V21.6034C47.0009 27.5154 44.7867 33.2119 40.7967 37.5634C36.8066 41.9148 31.332 44.6034 25.4583 45.0961V51.0675H21.5417V45.0961C15.668 44.6034 10.1934 41.9148 6.20332 37.5634C2.21326 33.2119 -0.000854037 27.5154 2.47118e-07 21.6034ZM17.5702 19.6352H29.4298C29.2557 18.0785 29.4977 16.5034 30.1309 15.0716C30.7642 13.6397 31.7658 12.4026 33.0332 11.4873C32.5259 9.33356 31.3086 7.41463 29.5783 6.04139C27.8481 4.66814 25.7064 3.92101 23.5 3.92101C21.2936 3.92101 19.1519 4.66814 17.4217 6.04139C15.6915 7.41463 14.4741 9.33356 13.9668 11.4873C15.2348 12.403 16.2369 13.6407 16.8701 15.0733C17.5034 16.5059 17.745 18.0818 17.5702 19.6391V19.6352ZM13.1091 19.6352C13.2543 18.9885 13.2527 18.3173 13.1042 17.6713C12.9558 17.0253 12.6644 16.4211 12.2516 15.9034C11.8388 15.3857 11.3152 14.9678 10.7195 14.6806C10.1239 14.3934 9.47144 14.2443 8.81054 14.2443C8.14964 14.2443 7.49721 14.3934 6.90156 14.6806C6.30591 14.9678 5.7823 15.3857 5.3695 15.9034C4.9567 16.4211 4.6653 17.0253 4.51686 17.6713C4.36843 18.3173 4.36677 18.9885 4.512 19.6352H13.1091ZM33.8909 19.6352H42.4841C42.6293 18.9885 42.6277 18.3173 42.4792 17.6713C42.3308 17.0253 42.0394 16.4211 41.6266 15.9034C41.2138 15.3857 40.6902 14.9678 40.0945 14.6806C39.4989 14.3934 38.8464 14.2443 38.1855 14.2443C37.5246 14.2443 36.8722 14.3934 36.2766 14.6806C35.6809 14.9678 35.1573 15.3857 34.7445 15.9034C34.3317 16.4211 34.0403 17.0253 33.8919 17.6713C33.7434 18.3173 33.7418 18.9885 33.887 19.6352H33.8909ZM23.5 41.2461C28.3554 41.2461 33.0377 39.4368 36.6383 36.1695C40.2388 32.9021 42.5008 28.4096 42.9854 23.5637H4.01458C4.49916 28.4096 6.76119 32.9021 10.3617 36.1695C13.9623 39.4368 18.6446 41.2461 23.5 41.2461ZM15.6667 51.0714H31.3333C31.8527 51.0714 32.3508 51.2784 32.7181 51.6468C33.0853 52.0151 33.2917 52.5148 33.2917 53.0357C33.2917 53.5567 33.0853 54.0563 32.7181 54.4247C32.3508 54.793 31.8527 55 31.3333 55H15.6667C15.1473 55 14.6492 54.793 14.2819 54.4247C13.9147 54.0563 13.7083 53.5567 13.7083 53.0357C13.7083 52.5148 13.9147 52.0151 14.2819 51.6468C14.6492 51.2784 15.1473 51.0714 15.6667 51.0714Z" fill="black"/>
</svg>