<svg xmlns="http://www.w3.org/2000/svg" width="37" height="41" viewBox="0 0 37 41" fill="none">
<path d="M18.6039 11.0112C18.1786 11.0112 17.7706 11.1855 17.4698 11.4956C17.169 11.8057 17 12.2264 17 12.665V20.9336C17.0001 21.3722 17.1691 21.7927 17.47 22.1028L22.2818 27.064C22.5843 27.3652 22.9894 27.5319 23.41 27.5282C23.8305 27.5244 24.2328 27.3505 24.5302 27.0439C24.8276 26.7372 24.9963 26.3225 24.9999 25.8889C25.0036 25.4553 24.8419 25.0375 24.5498 24.7256L20.2079 20.249V12.665C20.2079 12.2264 20.0389 11.8057 19.7381 11.4956C19.4373 11.1855 19.0293 11.0112 18.6039 11.0112Z" fill="#5FE26C"/>
<path d="M20.0097 40.7402C19.6001 40.7603 19.2 40.6004 18.8974 40.2957C18.5949 39.9911 18.4147 39.5666 18.3964 39.1157C18.3782 38.6647 18.5235 38.2243 18.8002 37.8913C19.077 37.5582 19.4626 37.3599 19.8723 37.3398C22.7953 37.0454 25.5815 35.8402 27.9047 33.8655C30.2279 31.8908 31.9919 29.2283 32.99 26.1898C33.9881 23.1513 34.179 19.8626 33.5404 16.709C32.9017 13.5553 31.46 10.6673 29.384 8.38313C27.308 6.09897 24.6837 4.51324 21.8186 3.81169C18.9534 3.11013 15.9659 3.32179 13.2061 4.42188C10.4463 5.52197 8.02832 7.46494 6.23548 10.0232C4.44263 12.5815 3.34912 15.6491 3.08301 18.8669C3.04615 19.316 2.84871 19.7306 2.53414 20.0195C2.21957 20.3084 1.81363 20.4479 1.40563 20.4073C0.997632 20.3667 0.620987 20.1494 0.358556 19.8031C0.0961248 19.4568 -0.0305955 19.01 0.00627207 18.5608C0.43703 13.3298 2.68391 8.4831 6.27919 5.02972C9.87448 1.57634 14.5412 -0.217678 19.3078 0.0211143C24.0745 0.259907 28.5738 2.51311 31.8693 6.31169C35.1647 10.1103 37.0024 15.1616 36.9998 20.4141C37.0234 25.5119 35.303 30.4328 32.1806 34.1978C29.0582 37.9628 24.7628 40.2961 20.1487 40.7334C20.1024 40.7385 20.0545 40.7402 20.0097 40.7402Z" fill="#5FE26C"/>
<path d="M8.33333 27.5283H1.66667C1.22464 27.5283 0.800716 27.2963 0.488155 26.8833C0.175595 26.4703 0 25.9101 0 25.326C0 24.742 0.175595 24.1818 0.488155 23.7688C0.800716 23.3558 1.22464 23.1238 1.66667 23.1238H8.33333C8.77536 23.1238 9.19928 23.3558 9.51184 23.7688C9.8244 24.1818 10 24.742 10 25.326C10 25.9101 9.8244 26.4703 9.51184 26.8833C9.19928 27.2963 8.77536 27.5283 8.33333 27.5283Z" fill="#5FE26C"/>
<path d="M10.5 34.135H1.5C1.10218 34.135 0.720644 33.903 0.43934 33.49C0.158035 33.077 0 32.5168 0 31.9327C0 31.3487 0.158035 30.7885 0.43934 30.3755C0.720644 29.9625 1.10218 29.7305 1.5 29.7305H10.5C10.8978 29.7305 11.2794 29.9625 11.5607 30.3755C11.842 30.7885 12 31.3487 12 31.9327C12 32.5168 11.842 33.077 11.5607 33.49C11.2794 33.903 10.8978 34.135 10.5 34.135Z" fill="#5FE26C"/>
<path d="M14.4 40.7419H1.6C1.17565 40.7419 0.768687 40.5099 0.468629 40.0969C0.168571 39.6839 0 39.1237 0 38.5397C0 37.9556 0.168571 37.3954 0.468629 36.9824C0.768687 36.5694 1.17565 36.3374 1.6 36.3374H14.4C14.8243 36.3374 15.2313 36.5694 15.5314 36.9824C15.8314 37.3954 16 37.9556 16 38.5397C16 39.1237 15.8314 39.6839 15.5314 40.0969C15.2313 40.5099 14.8243 40.7419 14.4 40.7419Z" fill="#5FE26C"/>
</svg>