<svg xmlns="http://www.w3.org/2000/svg" width="39" height="49" viewBox="0 0 39 49" fill="none">
<path d="M32.5 14.1312H29.6757C30.5945 13.1251 31.3238 11.8801 31.8119 10.4845C32.3 9.08902 32.5349 7.57717 32.5 6.05623C32.5 5.52083 32.3288 5.00735 32.024 4.62876C31.7193 4.25018 31.306 4.03749 30.875 4.03749C30.444 4.03749 30.0307 4.25018 29.726 4.62876C29.4212 5.00735 29.25 5.52083 29.25 6.05623C29.25 11.3494 25.3971 13.1824 22.4673 13.8102C23.5487 11.4282 24.1997 8.78228 24.375 6.05623C24.375 4.45002 23.8614 2.90959 22.9471 1.77383C22.0329 0.638065 20.7929 0 19.5 0C18.2071 0 16.9671 0.638065 16.0529 1.77383C15.1386 2.90959 14.625 4.45002 14.625 6.05623C14.8003 8.78228 15.4513 11.4282 16.5327 13.8102C13.6029 13.1824 9.75 11.3494 9.75 6.05623C9.75 5.52083 9.57879 5.00735 9.27405 4.62876C8.9693 4.25018 8.55598 4.03749 8.125 4.03749C7.69402 4.03749 7.2807 4.25018 6.97595 4.62876C6.67121 5.00735 6.5 5.52083 6.5 6.05623C6.46508 7.57717 6.7 9.08902 7.18808 10.4845C7.67617 11.8801 8.40547 13.1251 9.32425 14.1312H6.5C4.77609 14.1312 3.12279 14.982 1.90381 16.4963C0.68482 18.0107 0 20.0646 0 22.2062L0 24.2249C0 25.2957 0.34241 26.3227 0.951903 27.0799C1.5614 27.837 2.38805 28.2624 3.25 28.2624V38.3561C3.25258 41.0322 4.10943 43.5977 5.63261 45.4899C7.15578 47.3822 9.22091 48.4466 11.375 48.4499H27.625C29.7791 48.4466 31.8442 47.3822 33.3674 45.4899C34.8906 43.5977 35.7474 41.0322 35.75 38.3561V28.2624C36.612 28.2624 37.4386 27.837 38.0481 27.0799C38.6576 26.3227 39 25.2957 39 24.2249V22.2062C39 20.0646 38.3152 18.0107 37.0962 16.4963C35.8772 14.982 34.2239 14.1312 32.5 14.1312ZM19.5 4.03749C19.931 4.03749 20.3443 4.25018 20.649 4.62876C20.9538 5.00735 21.125 5.52083 21.125 6.05623C20.9288 8.20181 20.3754 10.2732 19.5 12.1387C18.6246 10.2732 18.0712 8.20181 17.875 6.05623C17.875 5.52083 18.0462 5.00735 18.351 4.62876C18.6557 4.25018 19.069 4.03749 19.5 4.03749ZM3.25 22.2062C3.25 21.1354 3.59241 20.1084 4.2019 19.3512C4.8114 18.5941 5.63805 18.1687 6.5 18.1687H17.875V24.2249H3.25V22.2062ZM6.5 38.3561V28.2624H17.875V44.4124H11.375C10.0821 44.4124 8.84209 43.7743 7.92785 42.6385C7.01361 41.5028 6.5 39.9623 6.5 38.3561ZM32.5 38.3561C32.5 39.9623 31.9864 41.5028 31.0721 42.6385C30.1579 43.7743 28.9179 44.4124 27.625 44.4124H21.125V28.2624H32.5V38.3561ZM21.125 24.2249V18.1687H32.5C33.362 18.1687 34.1886 18.5941 34.7981 19.3512C35.4076 20.1084 35.75 21.1354 35.75 22.2062V24.2249H21.125Z" fill="#5FE26C"/>
</svg>