<svg xmlns="http://www.w3.org/2000/svg" width="19" height="27" viewBox="0 0 19 27" fill="none">
  <path d="M9.50017 5.78201C9.83675 5.78201 10.1191 5.64324 10.3472 5.36571C10.5753 5.08817 10.6889 4.74511 10.6881 4.33651C10.6881 3.92695 10.5741 3.58388 10.346 3.30731C10.1179 3.03074 9.83596 2.89197 9.50017 2.89101C9.16359 2.89101 8.88166 3.02977 8.65436 3.30731C8.42707 3.58485 8.31303 3.92791 8.31224 4.33651C8.31224 4.74607 8.42628 5.08962 8.65436 5.36715C8.88245 5.64469 9.16438 5.78298 9.50017 5.78201ZM12.8561 5.78201H14.935C15.5289 5.78201 16.0437 6.02293 16.4793 6.50476C16.9148 6.9866 17.1821 7.57685 17.2811 8.27551L18.9739 22.7305C19.0729 23.5978 18.89 24.363 18.4251 25.026C17.9602 25.689 17.3611 26.02 16.6278 26.0191H2.37258C1.64002 26.0191 1.04091 25.688 0.575238 25.026C0.109569 24.364 -0.0733723 23.5988 0.026414 22.7305L1.71922 8.27551C1.81821 7.57685 2.0855 6.9866 2.52107 6.50476C2.95665 6.02293 3.47142 5.78201 4.06538 5.78201H6.14426C6.08487 5.5411 6.03537 5.30644 5.99577 5.07805C5.95617 4.84966 5.93638 4.60248 5.93638 4.33651C5.93638 3.13192 6.28286 2.10803 6.97582 1.26482C7.66878 0.421605 8.51023 0 9.50017 0C10.4901 0 11.3316 0.421605 12.0245 1.26482C12.7175 2.10803 13.064 3.13192 13.064 4.33651C13.064 4.60152 13.0442 4.8487 13.0046 5.07805C12.965 5.30741 12.9155 5.54206 12.8561 5.78201Z" fill="#F8F8F8"/>
</svg>