<svg xmlns="http://www.w3.org/2000/svg" width="43" height="43" viewBox="0 0 43 43" fill="none">
  <path d="M21.0958 33.8604L20.9167 34.0396L20.7196 33.8604C12.2092 26.1383 6.58333 21.0321 6.58333 15.8542C6.58333 12.2708 9.27083 9.58333 12.8542 9.58333C15.6133 9.58333 18.3008 11.375 19.2504 13.8117H22.5829C23.5325 11.375 26.22 9.58333 28.9792 9.58333C32.5625 9.58333 35.25 12.2708 35.25 15.8542C35.25 21.0321 29.6242 26.1383 21.0958 33.8604ZM28.9792 6C25.8617 6 22.8696 7.45125 20.9167 9.72667C18.9637 7.45125 15.9717 6 12.8542 6C7.33583 6 3 10.3179 3 15.8542C3 22.6087 9.09167 28.145 18.3188 36.5121L20.9167 38.8771L23.5146 36.5121C32.7417 28.145 38.8333 22.6087 38.8333 15.8542C38.8333 10.3179 34.4975 6 28.9792 6Z" fill="#0B0A0A"/>
</svg>