<svg xmlns="http://www.w3.org/2000/svg" width="29" height="39" viewBox="0 0 29 39" fill="none">
  <path fill-rule="evenodd" clip-rule="evenodd" d="M9.0625 9.53422C9.0625 8.01704 9.63538 6.562 10.6551 5.48919C11.6748 4.41638 13.0579 3.81369 14.5 3.81369C15.9421 3.81369 17.3252 4.41638 18.3449 5.48919C19.3646 6.562 19.9375 8.01704 19.9375 9.53422V13.3479H9.0625V9.53422ZM5.4375 13.3479V9.53422C5.4375 7.00559 6.3923 4.58052 8.09184 2.79251C9.79139 1.0045 12.0965 0 14.5 0C16.9035 0 19.2086 1.0045 20.9082 2.79251C22.6077 4.58052 23.5625 7.00559 23.5625 9.53422V13.3479H27.1875C27.6682 13.3479 28.1292 13.5488 28.4691 13.9064C28.809 14.264 29 14.749 29 15.2547V32.4163C29 33.9335 28.4271 35.3886 27.4074 36.4614C26.3877 37.5342 25.0046 38.1369 23.5625 38.1369H5.4375C3.99539 38.1369 2.61234 37.5342 1.59261 36.4614C0.572878 35.3886 0 33.9335 0 32.4163V15.2547C0 14.749 0.19096 14.264 0.530869 13.9064C0.870779 13.5488 1.3318 13.3479 1.8125 13.3479H5.4375ZM16.3125 25.7424C16.3125 24.9838 16.5989 24.2563 17.1088 23.7199C17.6187 23.1835 18.3102 22.8821 19.0312 22.8821H19.0494C19.7704 22.8821 20.462 23.1835 20.9718 23.7199C21.4817 24.2563 21.7681 24.9838 21.7681 25.7424V25.7615C21.7681 26.52 21.4817 27.2476 20.9718 27.784C20.462 28.3204 19.7704 28.6217 19.0494 28.6217H19.0312C18.3102 28.6217 17.6187 28.3204 17.1088 27.784C16.5989 27.2476 16.3125 26.52 16.3125 25.7615V25.7424Z" fill="#F8F8F8"/>
</svg>