<svg xmlns="http://www.w3.org/2000/svg" width="74" height="26" viewBox="0 0 74 26" fill="none">
<rect width="22" height="26" rx="8" fill="#39DB4A"/>
<path d="M15.0759 5C15.415 5 15.6657 5.01513 15.8278 5.0454C16.0048 5.06054 16.1964 5.12864 16.4029 5.24971C16.624 5.37078 16.7788 5.57508 16.8673 5.86263C16.9558 6.15017 17 6.53608 17 7.02036C17 7.50464 16.9558 7.89055 16.8673 8.1781C16.7788 8.46564 16.624 8.66994 16.4029 8.79101C16.1817 8.89695 15.9827 8.96505 15.8057 8.99532C15.6435 9.01045 15.3855 9.01802 15.0317 9.01802H8.26409V11.3108H12.621C12.9748 11.3108 13.2329 11.3259 13.3951 11.3562C13.572 11.3713 13.771 11.4394 13.9922 11.5605C14.3755 11.7875 14.5672 12.3853 14.5672 13.3539C14.5672 14.4132 14.2871 15.0413 13.7268 15.238C13.4909 15.3137 13.1149 15.3515 12.5989 15.3515H8.26409V19.6419C8.26409 20.0052 8.24935 20.27 8.21986 20.4365C8.20512 20.6029 8.19546 20.79 8.01822 20.9719C7.9567 21.0351 7.21764 20.9719 6.94623 20.9719C5.91414 20.9719 5.30963 20.6844 5.1327 20.1093C5.04423 19.8672 5 19.4813 5 18.9516V7.66533C5 6.8935 5.14007 6.37139 5.42021 6.09898C5.70035 5.81144 6.23114 5.66767 7.01258 5.66767L15.0759 5Z" fill="white"/>
<path d="M37.699 6C39.5095 6 37.0096 6.84362 39.3033 9.10043C40.6367 10.4124 41.3034 12.0431 41.3034 13.9927C41.3034 15.93 40.6673 17.5852 39.395 18.9585C38.1228 20.3195 36.557 21 34.6976 21C32.8381 21 31.254 20.3256 29.945 18.9769C28.6483 17.6281 28 16.0219 28 14.1582C28 13.1405 28.1835 12.1903 28.5505 11.3075C28.9175 10.4124 29.4068 9.66445 30.0184 9.06365C30.6301 8.46284 31.3335 7.99079 32.1286 7.64747C32.9238 7.30415 36.8549 6 37.699 6ZM31.2479 14.0662C31.2479 15.1575 31.5965 16.0464 32.2938 16.7331C33.0033 17.4074 33.7923 17.7446 34.6609 17.7446C35.5294 17.7446 36.3123 17.4136 37.0096 16.7515C37.7069 16.0894 38.0555 15.2004 38.0555 14.0846C38.0555 12.9689 37.7008 12.0738 36.9912 11.3994C36.294 10.7251 35.5111 10.3879 34.6425 10.3879C33.774 10.3879 32.9911 10.7312 32.2938 11.4178C31.5965 12.0922 31.2479 12.975 31.2479 14.0662Z" fill="black"/>
<path d="M49.1825 7.1325C50.993 7.1325 52.5649 7.78847 53.8983 9.10043C55.2317 10.4124 55.8984 12.0431 55.8984 13.9927C55.8984 15.93 55.2623 17.5852 53.99 18.9585C52.7178 20.3195 51.152 21 49.2926 21C47.4332 21 45.849 20.3256 44.5401 18.9769C43.2434 17.6281 42.595 16.0219 42.595 14.1582C42.595 13.1405 42.7785 12.1903 43.1455 11.3075C43.5125 10.4124 44.0018 9.66445 44.6134 9.06365C45.2251 8.46284 45.9285 7.99079 46.7236 7.64747C47.5188 7.30415 48.3384 7.1325 49.1825 7.1325ZM45.8429 14.0662C45.8429 15.1575 46.1915 16.0464 46.8888 16.7331C47.5983 17.4074 48.3873 17.7446 49.2559 17.7446C50.1244 17.7446 50.9073 17.4136 51.6046 16.7515C52.3019 16.0894 52.6505 15.2004 52.6505 14.0846C52.6505 12.9689 52.2958 12.0738 51.5863 11.3994C50.889 10.7251 50.1061 10.3879 49.2375 10.3879C48.369 10.3879 47.5861 10.7312 46.8888 11.4178C46.1915 12.0922 45.8429 12.975 45.8429 14.0662Z" fill="black"/>
<path d="M59.0984 7.27963L62.493 7.29802C64.2668 7.29802 65.8265 7.94174 67.1721 9.22917C68.5178 10.5043 69.1906 12.0799 69.1906 13.9559C69.1906 15.8196 68.53 17.4197 67.2088 18.7562C65.8999 20.0927 64.3096 20.7609 62.438 20.7609H59.08C58.3338 20.7609 57.8689 20.6076 57.6854 20.3011C57.5387 20.0436 57.4653 19.6513 57.4653 19.124V8.89812C57.4653 8.60385 57.4714 8.38928 57.4836 8.2544C57.5081 8.11953 57.5692 7.96013 57.6671 7.77621C57.8384 7.44516 58.3154 7.27963 59.0984 7.27963ZM62.493 17.5055C63.3738 17.5055 64.1689 17.1806 64.8784 16.5308C65.588 15.8687 65.9427 15.041 65.9427 14.0479C65.9427 13.0547 65.5941 12.2271 64.8968 11.5649C64.2117 10.8906 63.4044 10.5534 62.4747 10.5534H60.7131V17.5055H62.493Z" fill="black"/>
<path d="M70.7521 8.91651C70.7521 8.6345 70.7583 8.42606 70.7705 8.29119C70.795 8.14405 70.8561 7.97852 70.954 7.79461C71.1252 7.46355 71.6023 7.29802 72.3853 7.29802C73.2416 7.29802 73.7492 7.52486 73.9083 7.97852C73.9694 8.18697 74 8.50576 74 8.9349V19.1608C74 19.4551 73.9878 19.6697 73.9633 19.8045C73.9511 19.9394 73.896 20.0988 73.7982 20.2827C73.6269 20.6138 73.1498 20.7793 72.3669 20.7793C71.5106 20.7793 71.009 20.5463 70.8622 20.0804C70.7888 19.8842 70.7521 19.5716 70.7521 19.1424V8.91651Z" fill="black"/>
</svg>