<svg xmlns="http://www.w3.org/2000/svg" width="31" height="33" viewBox="0 0 31 33" fill="none">
  <path d="M31 23.4126L21.9169 32.4038L17.5302 28.0532L18.9979 26.603L21.9169 29.4712L29.5324 21.9624L31 23.4126ZM14.6113 10.3125H8.34929V8.25H14.6113V10.3125ZM14.6113 14.4375H8.34929V12.375H14.6113V14.4375ZM8.34929 16.5H14.6113V18.5625H8.34929V16.5ZM6.26197 10.3125H4.17464V8.25H6.26197V10.3125ZM6.26197 14.4375H4.17464V12.375H6.26197V14.4375ZM4.17464 16.5H6.26197V18.5625H4.17464V16.5ZM16.6986 10.3125V2.0625H2.08732V30.9375H16.6986V33H0V0H18.1825L27.1352 8.84619V20.625L25.0479 22.6875V10.3125H16.6986ZM18.7859 8.25H23.5639L18.7859 3.52881V8.25Z" fill="#070707"/>
</svg>