<svg xmlns="http://www.w3.org/2000/svg" width="35" height="40" viewBox="0 0 35 40" fill="none">
<g clip-path="url(#clip0_104_307)">
<path d="M10.2082 40.0011C11.819 40.0011 13.1248 38.5087 13.1248 36.6677C13.1248 34.8268 11.819 33.3344 10.2082 33.3344C8.59734 33.3344 7.2915 34.8268 7.2915 36.6677C7.2915 38.5087 8.59734 40.0011 10.2082 40.0011Z" fill="#5FE26C"/>
<path d="M24.7917 40.0011C26.4025 40.0011 27.7083 38.5087 27.7083 36.6677C27.7083 34.8268 26.4025 33.3344 24.7917 33.3344C23.1808 33.3344 21.875 34.8268 21.875 36.6677C21.875 38.5087 23.1808 40.0011 24.7917 40.0011Z" fill="#5FE26C"/>
<path d="M34.5405 2.22565C34.267 1.9132 33.8961 1.73767 33.5094 1.73767C33.1227 1.73767 32.7519 1.9132 32.4784 2.22565L24.9548 10.8323L22.693 8.13398C22.5602 7.97618 22.4016 7.84979 22.2262 7.76204C22.0507 7.67429 21.8619 7.6269 21.6704 7.62257C21.4789 7.61823 21.2885 7.65705 21.1102 7.73679C20.9318 7.81653 20.769 7.93564 20.6309 8.08732C20.4928 8.23899 20.3822 8.42027 20.3054 8.62079C20.2287 8.82131 20.1872 9.03715 20.1834 9.25598C20.1757 9.69795 20.322 10.1253 20.59 10.444L22.9438 13.2423C23.1946 13.5519 23.4977 13.8001 23.8349 13.972C24.172 14.1439 24.5361 14.2359 24.9053 14.2423H24.9534C25.3151 14.2437 25.6735 14.1629 26.0077 14.0047C26.3419 13.8465 26.6453 13.614 26.9003 13.3206L34.5405 4.58232C34.8139 4.26977 34.9674 3.84592 34.9674 3.40398C34.9674 2.96204 34.8139 2.53819 34.5405 2.22565Z" fill="#5FE26C"/>
<path d="M31.9375 15.0267C31.7489 14.9877 31.5555 14.9916 31.3683 15.0382C31.1811 15.0847 31.0037 15.1729 30.8463 15.2979C30.689 15.4228 30.5547 15.5819 30.4511 15.7661C30.3476 15.9504 30.2768 16.1562 30.2429 16.3717L30.0562 17.5533C29.8743 18.7072 29.3434 19.7513 28.5562 20.5032C27.769 21.2551 26.7757 21.6669 25.7498 21.6667H7.90125L6.53042 8.33333H16.0417C16.4284 8.33333 16.7994 8.15774 17.0729 7.84518C17.3464 7.53262 17.5 7.10869 17.5 6.66667C17.5 6.22464 17.3464 5.80072 17.0729 5.48816C16.7994 5.17559 16.4284 5 16.0417 5H6.18625L6.125 4.41333C5.99932 3.19766 5.48779 2.07692 4.68736 1.26351C3.88692 0.45009 2.85319 0.000521394 1.78208 0L1.45833 0C1.07156 0 0.700626 0.175595 0.427136 0.488155C0.153645 0.800716 0 1.22464 0 1.66667C0 2.10869 0.153645 2.53262 0.427136 2.84518C0.700626 3.15774 1.07156 3.33333 1.45833 3.33333H1.78208C2.13928 3.33339 2.48403 3.48326 2.75096 3.75453C3.01788 4.02579 3.18842 4.39958 3.23021 4.805L5.23688 24.305C5.4452 26.333 6.29778 28.203 7.63278 29.56C8.96778 30.9171 10.6923 31.6667 12.479 31.6667H27.7083C28.0951 31.6667 28.466 31.4911 28.7395 31.1785C29.013 30.866 29.1667 30.442 29.1667 30C29.1667 29.558 29.013 29.134 28.7395 28.8215C28.466 28.5089 28.0951 28.3333 27.7083 28.3333H12.479C11.5741 28.3335 10.6914 28.0131 9.95256 27.4161C9.21368 26.8191 8.65496 25.975 8.35333 25H25.7498C27.4594 25.0001 29.1147 24.3137 30.4264 23.0607C31.7382 21.8077 32.623 20.0678 32.9262 18.145L33.1129 16.9617C33.1813 16.527 33.096 16.079 32.8756 15.7162C32.6552 15.3534 32.3178 15.1054 31.9375 15.0267Z" fill="#5FE26C"/>
</g>
<defs>
<clipPath id="clip0_104_307">
<rect width="35" height="40" fill="white"/>
</clipPath>
</defs>
</svg>