<svg xmlns="http://www.w3.org/2000/svg" width="41" height="41" viewBox="0 0 41 41" fill="none">
  <path d="M11.9582 3.41663H5.12484C4.67176 3.41663 4.23724 3.59661 3.91686 3.91699C3.59649 4.23736 3.4165 4.67188 3.4165 5.12496V35.875C3.4165 36.328 3.59649 36.7626 3.91686 37.0829C4.23724 37.4033 4.67176 37.5833 5.12484 37.5833H11.9582C12.4112 37.5833 12.8458 37.4033 13.1661 37.0829C13.4865 36.7626 13.6665 36.328 13.6665 35.875V5.12496C13.6665 4.67188 13.4865 4.23736 13.1661 3.91699C12.8458 3.59661 12.4112 3.41663 11.9582 3.41663ZM8.5415 35.875C7.86575 35.875 7.20517 35.6746 6.64331 35.2991C6.08144 34.9237 5.64351 34.3901 5.38492 33.7658C5.12632 33.1415 5.05865 32.4545 5.19049 31.7917C5.32232 31.129 5.64773 30.5202 6.12556 30.0423C6.60338 29.5645 7.21218 29.2391 7.87495 29.1073C8.53771 28.9754 9.22469 29.0431 9.84901 29.3017C10.4733 29.5603 11.0069 29.9982 11.3824 30.5601C11.7578 31.122 11.9582 31.7825 11.9582 32.4583C11.9582 33.3644 11.5982 34.2335 10.9575 34.8742C10.3167 35.515 9.44766 35.875 8.5415 35.875ZM11.9582 20.5H5.12484V5.12496H11.9582V20.5ZM10.2498 32.4583C10.2498 32.7962 10.1496 33.1265 9.96193 33.4074C9.77422 33.6883 9.50741 33.9073 9.19525 34.0366C8.8831 34.1659 8.53961 34.1997 8.20822 34.1338C7.87684 34.0679 7.57244 33.9052 7.33353 33.6663C7.09462 33.4274 6.93191 33.123 6.866 32.7916C6.80008 32.4602 6.83391 32.1167 6.96321 31.8045C7.09251 31.4924 7.31147 31.2256 7.5924 31.0379C7.87334 30.8501 8.20363 30.75 8.5415 30.75C8.99458 30.75 9.4291 30.9299 9.74948 31.2503C10.0699 31.5707 10.2498 32.0052 10.2498 32.4583ZM23.9165 3.41663H17.0832C16.6301 3.41663 16.1956 3.59661 15.8752 3.91699C15.5548 4.23736 15.3748 4.67188 15.3748 5.12496V35.875C15.3748 36.328 15.5548 36.7626 15.8752 37.0829C16.1956 37.4033 16.6301 37.5833 17.0832 37.5833H23.9165C24.3696 37.5833 24.8041 37.4033 25.1245 37.0829C25.4449 36.7626 25.6248 36.328 25.6248 35.875V5.12496C25.6248 4.67188 25.4449 4.23736 25.1245 3.91699C24.8041 3.59661 24.3696 3.41663 23.9165 3.41663ZM20.4998 35.875C19.8241 35.875 19.1635 35.6746 18.6016 35.2991C18.0398 34.9237 17.6018 34.3901 17.3432 33.7658C17.0846 33.1415 17.017 32.4545 17.1488 31.7917C17.2807 31.129 17.6061 30.5202 18.0839 30.0423C18.5617 29.5645 19.1705 29.2391 19.8333 29.1073C20.496 28.9754 21.183 29.0431 21.8073 29.3017C22.4317 29.5603 22.9653 29.9982 23.3407 30.5601C23.7161 31.122 23.9165 31.7825 23.9165 32.4583C23.9165 33.3644 23.5565 34.2335 22.9158 34.8742C22.275 35.515 21.406 35.875 20.4998 35.875ZM23.9165 20.5H17.0832V5.12496H23.9165V20.5ZM22.2082 32.4583C22.2082 32.7962 22.108 33.1265 21.9203 33.4074C21.7325 33.6883 21.4657 33.9073 21.1536 34.0366C20.8414 34.1659 20.4979 34.1997 20.1666 34.1338C19.8352 34.0679 19.5308 33.9052 19.2919 33.6663C19.0529 33.4274 18.8902 33.123 18.8243 32.7916C18.7584 32.4602 18.7922 32.1167 18.9215 31.8045C19.0508 31.4924 19.2698 31.2256 19.5507 31.0379C19.8317 30.8501 20.162 30.75 20.4998 30.75C20.9529 30.75 21.3874 30.9299 21.7078 31.2503C22.0282 31.5707 22.2082 32.0052 22.2082 32.4583ZM35.8748 3.41663H29.0415C28.5884 3.41663 28.1539 3.59661 27.8335 3.91699C27.5132 4.23736 27.3332 4.67188 27.3332 5.12496V35.875C27.3332 36.328 27.5132 36.7626 27.8335 37.0829C28.1539 37.4033 28.5884 37.5833 29.0415 37.5833H35.8748C36.3279 37.5833 36.7624 37.4033 37.0828 37.0829C37.4032 36.7626 37.5832 36.328 37.5832 35.875V5.12496C37.5832 4.67188 37.4032 4.23736 37.0828 3.91699C36.7624 3.59661 36.3279 3.41663 35.8748 3.41663ZM32.4582 35.875C31.7824 35.875 31.1218 35.6746 30.56 35.2991C29.9981 34.9237 29.5602 34.3901 29.3016 33.7658C29.043 33.1415 28.9753 32.4545 29.1072 31.7917C29.239 31.129 29.5644 30.5202 30.0422 30.0423C30.5201 29.5645 31.1288 29.2391 31.7916 29.1073C32.4544 28.9754 33.1414 29.0431 33.7657 29.3017C34.39 29.5603 34.9236 29.9982 35.299 30.5601C35.6745 31.122 35.8748 31.7825 35.8748 32.4583C35.8748 33.3644 35.5149 34.2335 34.8741 34.8742C34.2334 35.515 33.3643 35.875 32.4582 35.875ZM35.8748 20.5H29.0415V5.12496H35.8748V20.5ZM34.1665 32.4583C34.1665 32.7962 34.0663 33.1265 33.8786 33.4074C33.6909 33.6883 33.4241 33.9073 33.1119 34.0366C32.7998 34.1659 32.4563 34.1997 32.1249 34.1338C31.7935 34.0679 31.4891 33.9052 31.2502 33.6663C31.0113 33.4274 30.8486 33.123 30.7827 32.7916C30.7167 32.4602 30.7506 32.1167 30.8799 31.8045C31.0092 31.4924 31.2281 31.2256 31.5091 31.0379C31.79 30.8501 32.1203 30.75 32.4582 30.75C32.9112 30.75 33.3458 30.9299 33.6661 31.2503C33.9865 31.5707 34.1665 32.0052 34.1665 32.4583Z" fill="#101010"/>
</svg>