<svg xmlns="http://www.w3.org/2000/svg" width="20" height="20" viewBox="0 0 20 20" fill="none">
  <g clip-path="url(#clip0_169_251)">
    <path fill-rule="evenodd" clip-rule="evenodd" d="M13.3334 7.49984C13.3334 8.38389 12.9822 9.23174 12.3571 9.85686C11.732 10.482 10.8841 10.8332 10.0001 10.8332C9.11603 10.8332 8.26818 10.482 7.64306 9.85686C7.01794 9.23174 6.66675 8.38389 6.66675 7.49984C6.66675 6.61578 7.01794 5.76794 7.64306 5.14281C8.26818 4.51769 9.11603 4.1665 10.0001 4.1665C10.8841 4.1665 11.732 4.51769 12.3571 5.14281C12.9822 5.76794 13.3334 6.61578 13.3334 7.49984ZM11.6667 7.49984C11.6667 7.94186 11.4912 8.36579 11.1786 8.67835C10.866 8.99091 10.4421 9.1665 10.0001 9.1665C9.55805 9.1665 9.13413 8.99091 8.82157 8.67835C8.50901 8.36579 8.33341 7.94186 8.33341 7.49984C8.33341 7.05781 8.50901 6.63389 8.82157 6.32133C9.13413 6.00877 9.55805 5.83317 10.0001 5.83317C10.4421 5.83317 10.866 6.00877 11.1786 6.32133C11.4912 6.63389 11.6667 7.05781 11.6667 7.49984Z" fill="black"/>
    <path fill-rule="evenodd" clip-rule="evenodd" d="M10 0.833252C4.93754 0.833252 0.833374 4.93742 0.833374 9.99992C0.833374 15.0624 4.93754 19.1666 10 19.1666C15.0625 19.1666 19.1667 15.0624 19.1667 9.99992C19.1667 4.93742 15.0625 0.833252 10 0.833252ZM2.50004 9.99992C2.50004 11.7416 3.09421 13.3449 4.09004 14.6183C4.7894 13.6998 5.69162 12.9555 6.72623 12.4435C7.76085 11.9315 8.89983 11.6656 10.0542 11.6666C11.1936 11.6655 12.3183 11.9245 13.3425 12.4239C14.3667 12.9233 15.2633 13.6499 15.9642 14.5483C16.6862 13.6013 17.1724 12.4959 17.3825 11.3237C17.5925 10.1516 17.5204 8.9462 17.1721 7.8074C16.8238 6.66861 16.2094 5.62912 15.3796 4.77495C14.5498 3.92077 13.5286 3.27647 12.4004 2.89534C11.2721 2.51422 10.0694 2.40723 8.89159 2.58323C7.71381 2.75923 6.59487 3.21316 5.62735 3.90746C4.65983 4.60176 3.87155 5.51648 3.32773 6.57591C2.78391 7.63535 2.50019 8.80906 2.50004 9.99992ZM10 17.4999C8.27833 17.5025 6.6086 16.9102 5.27337 15.8233C5.81082 15.0539 6.52615 14.4257 7.35853 13.9922C8.19091 13.5586 9.1157 13.3326 10.0542 13.3333C10.981 13.3325 11.8946 13.5529 12.7191 13.9761C13.5437 14.3993 14.2553 15.0131 14.795 15.7666C13.4495 16.8888 11.7522 17.5024 10 17.4999Z" fill="black"/>
  </g>
  <defs>
    <clipPath id="clip0_169_251">
      <rect width="20" height="20" fill="white"/>
    </clipPath>
  </defs>
</svg>