<svg xmlns="http://www.w3.org/2000/svg" width="47" height="55" viewBox="0 0 47 55" fill="none">
  <path d="M36.2292 25.2083C36.9165 22.8777 37.0634 20.0842 37.2083 16.6971V13.75H32.7903C27.2482 13.75 23.7507 15.5925 21.7453 18.5075M7.83333 25.2083H39.1667C39.686 25.2083 40.1842 25.4498 40.5514 25.8795C40.9187 26.3093 41.125 26.8922 41.125 27.5V28.6458C41.125 32.0833 36.1959 41.4173 33.2917 43.5417V45.8333C33.2917 46.4411 33.0853 47.024 32.7181 47.4538C32.3508 47.8836 31.8527 48.125 31.3333 48.125H15.6667C15.1473 48.125 14.6492 47.8836 14.2819 47.4538C13.9147 47.024 13.7083 46.4411 13.7083 45.8333V43.5417C10.4046 41.1263 5.875 32.0833 5.875 28.6458V27.5C5.875 26.8922 6.08132 26.3093 6.44858 25.8795C6.81584 25.4498 7.31395 25.2083 7.83333 25.2083Z" stroke="black" stroke-width="2.67" stroke-linecap="round" stroke-linejoin="round"/>
  <path d="M10.2909 25.2265C10.0158 23.7114 9.84879 22.1723 9.7915 20.6248V18.3332H13.2284C15.1475 18.3332 16.7553 18.6173 18.0831 19.1353M15.6665 18.3332L17.6248 9.1665L25.4582 14.8957" stroke="black" stroke-width="2.67" stroke-linecap="round" stroke-linejoin="round"/>
  <path d="M25.4582 25.208V24.0622C25.4582 22.5427 24.9424 21.0855 24.0242 20.011C23.1061 18.9366 21.8608 18.333 20.5623 18.333C19.2639 18.333 18.0186 18.9366 17.1005 20.011C16.1823 21.0855 15.6665 22.5427 15.6665 24.0622V25.208" stroke="black" stroke-width="2.67" stroke-linecap="round" stroke-linejoin="round"/>
</svg>