<svg xmlns="http://www.w3.org/2000/svg" width="47" height="55" viewBox="0 0 47 55" fill="none">
  <path d="M40.5374 5.11865C40.005 5.11865 39.4267 5.18848 38.8024 5.3249C36.8839 5.74062 34.5706 6.78154 32.0829 8.28223C31.5597 8.59697 31.0272 8.93105 30.4948 9.28447C31.5413 9.66045 32.597 10.0644 33.4966 10.5359C34.3044 10.9463 35.0021 11.4082 35.5069 12.085C36.0118 12.7725 36.2138 13.8789 35.8282 14.8027C35.5712 15.415 35.1489 15.5547 34.7817 15.6729C34.4054 15.7803 33.9923 15.834 33.5241 15.8555C32.5786 15.9092 31.3853 15.834 30.0817 15.6836C27.9521 15.4473 25.5286 15.0176 23.5366 14.5557C22.2882 15.6084 21.0397 16.7148 19.8005 17.8643C20.8378 18.251 21.8108 18.7559 22.6554 19.3252C23.6101 19.9697 24.3903 20.668 24.9044 21.4629C25.1614 21.8711 25.3634 22.3115 25.4093 22.8379C25.4552 23.375 25.2808 23.9766 24.9411 24.374C24.1976 25.2656 23.1603 25.2979 21.9761 25.2764C20.8011 25.2656 19.4333 25.0508 18.0747 24.7715C16.5601 24.4492 15.1097 24.0625 13.9714 23.7187C12.4751 25.3193 11.0706 26.9307 9.76709 28.499C10.6483 28.8965 11.603 29.4121 12.4567 29.96C13.1911 30.4326 13.8429 30.916 14.3294 31.4639C14.5772 31.7324 14.7884 32.0117 14.9353 32.3984C15.0821 32.7852 15.1188 33.3652 14.8985 33.8164V33.8271C14.6507 34.3105 14.3019 34.4932 13.9622 34.6436C13.6317 34.7939 13.2554 34.9014 12.8331 34.9766C11.9886 35.1377 10.9788 35.2129 9.91396 35.2344C8.11933 35.2666 6.25953 35.1377 4.99549 34.9014C4.6898 35.374 4.40156 35.8252 4.13535 36.2764C2.84928 38.4355 2.06074 40.3154 1.88265 41.5078C1.79361 42.1094 1.85144 42.4854 1.95701 42.7109C2.06166 42.9365 2.22414 43.1084 2.66752 43.248C3.51021 43.4951 4.945 43.3018 6.71668 42.5713C8.48836 41.8408 10.5933 40.6377 12.8698 39.0801C17.4229 35.9648 22.6554 31.4854 27.4747 26.7695C32.294 22.0537 36.7003 17.1016 39.6103 13.0625C41.0606 11.043 42.1439 9.25439 42.6946 7.91377C42.97 7.24238 43.1077 6.68701 43.1353 6.33359C43.1536 6.03496 43.1261 5.93828 43.071 5.86523C42.4743 5.40654 41.7032 5.15195 40.7669 5.12187H40.5374V5.11865ZM28.5579 10.6165C27.5298 11.3545 26.4833 12.1494 25.4276 12.9873C26.9974 13.3096 28.714 13.5889 30.247 13.7607C31.5046 13.9004 32.6429 13.9648 33.4507 13.9219C33.8546 13.9004 34.1759 13.8574 34.3503 13.8037C34.4054 13.7822 34.3962 13.7822 34.4146 13.7715C34.4605 13.6104 34.4237 13.5674 34.2585 13.3525C34.0474 13.0625 33.5241 12.665 32.8265 12.2998C31.6698 11.6982 30.0634 11.1504 28.5579 10.6165ZM43.1812 10.7744C42.5569 11.8594 41.7767 13.0518 40.8679 14.3086C39.8765 15.6836 38.729 17.1445 37.4622 18.6699C38.2976 18.7129 39.2155 18.627 40.1519 18.3584C41.8226 17.875 43.2271 16.9297 44.1083 15.8877C44.9804 14.835 45.3017 13.7715 45.1089 12.8584C44.9253 11.9775 44.2735 11.2256 43.1812 10.7744ZM18.2032 19.3896C17.5606 20.0127 16.9272 20.6357 16.303 21.2695C16.0185 21.5596 15.7339 21.8496 15.4493 22.1504C16.3489 22.3975 17.3587 22.6553 18.3685 22.8701C19.672 23.1387 20.9755 23.332 22.0036 23.3428C23.0226 23.3643 23.7294 23.0527 23.7661 23.0205C23.7569 22.9775 23.7202 22.8379 23.5825 22.623C23.3071 22.1826 22.6646 21.5596 21.8292 21.0117C20.8103 20.3242 19.4976 19.7227 18.2032 19.3896ZM35.9751 20.3994C34.1483 22.4941 32.1196 24.6641 29.9899 26.8018C30.4765 26.8877 30.9905 26.9414 31.523 26.9414C33.2487 26.9414 34.8001 26.415 35.8649 25.6416C36.9298 24.8682 37.453 23.9229 37.453 22.9775C37.453 22.0645 36.9665 21.1621 35.9751 20.3994ZM44.0165 20.4746C43.787 20.7432 43.5483 21.0225 43.2821 21.2803C37.7376 26.7695 31.0364 33.8701 24.2894 39.4561C17.6433 44.9668 10.9513 49.0918 5.05607 48.5225C5.69681 49.0703 6.37428 49.4033 7.05449 49.6074C8.79312 50.1445 10.5933 49.7686 11.6214 49.4248C19.0386 46.9219 26.9331 40.7881 33.0192 34.9658C36.0577 32.0547 38.6464 29.2295 40.5007 26.9844C41.4278 25.8672 42.1714 24.9004 42.6946 24.1484C43.2179 23.4072 43.5116 22.7305 43.4933 22.8271C43.7044 21.9893 43.8788 21.2051 44.0165 20.4746ZM28.4019 28.3701C26.2997 30.4326 24.1241 32.4414 21.9485 34.3213C22.4442 34.3965 22.9583 34.4395 23.4907 34.4395C25.345 34.4395 27.0157 33.9346 28.154 33.1826C29.2923 32.4307 29.8339 31.5283 29.8339 30.6904C29.8339 29.917 29.3749 29.0898 28.4019 28.3701ZM8.51865 30.0459C7.68697 31.0986 6.91496 32.1191 6.21088 33.1182C7.26746 33.2363 8.62973 33.3115 9.8956 33.3008C10.9054 33.2793 11.8601 33.2041 12.5669 33.0752C12.8423 33.0215 13.0442 32.9463 13.2095 32.8926C13.2003 32.8711 13.2095 32.8818 13.2003 32.8711C12.8974 32.5273 12.3282 32.0762 11.6581 31.6465C10.6759 31.0127 9.46416 30.4111 8.51865 30.0459ZM19.5985 36.2979C17.579 37.9521 15.5962 39.4561 13.7052 40.7451C13.1269 41.1426 12.5669 41.5078 12.0069 41.8623C12.7505 42.0557 13.5767 42.1631 14.4304 42.1631C16.2847 42.1631 17.9554 41.6582 19.0937 40.9062C20.2319 40.1543 20.7735 39.252 20.7735 38.4141C20.7735 37.7158 20.388 36.9639 19.5985 36.2979ZM9.51006 43.3232C8.72611 43.7422 7.97613 44.1074 7.26287 44.3975C5.47834 45.1279 3.91045 45.4932 2.56838 45.1924C2.66017 45.2998 2.76023 45.3965 2.87039 45.4932C3.55336 46.0947 4.55303 46.4922 5.67387 46.4922C6.79471 46.4922 7.79437 46.0947 8.47734 45.4932C9.15847 44.9023 9.51006 44.1719 9.51006 43.3984V43.3232Z" fill="black"/>
</svg>