<svg xmlns="http://www.w3.org/2000/svg" width="8" height="8" viewBox="0 0 8 8" fill="none">
  <g clip-path="url(#clip0_102_174)">
    <path d="M0.442276 4.13348L1.62894 5.00015L1.17828 6.39582C1.10545 6.61228 1.10452 6.84648 1.17565 7.06351C1.24677 7.28054 1.38612 7.46877 1.57294 7.60015C1.75656 7.73574 1.97907 7.80838 2.20733 7.80724C2.43558 7.8061 2.65736 7.73124 2.83961 7.59382L3.99994 6.73981L5.16061 7.59282C5.34389 7.72763 5.56521 7.80086 5.79273 7.80197C6.02026 7.80308 6.24228 7.73201 6.42686 7.59898C6.61145 7.46596 6.74911 7.27783 6.82004 7.06164C6.89097 6.84545 6.89152 6.61234 6.82161 6.39582L6.37094 5.00015L7.55761 4.13348C7.74066 3.99965 7.87673 3.8114 7.94639 3.59561C8.01605 3.37982 8.01574 3.14754 7.9455 2.93194C7.87526 2.71634 7.73869 2.52846 7.55528 2.39512C7.37188 2.26178 7.15103 2.1898 6.92428 2.18948H5.46661L5.02428 0.810814C4.95472 0.5938 4.81803 0.404486 4.63393 0.270169C4.44983 0.135853 4.22783 0.0634766 3.99994 0.0634766C3.77205 0.0634766 3.55005 0.135853 3.36595 0.270169C3.18185 0.404486 3.04517 0.5938 2.97561 0.810814L2.53328 2.18948H1.07694C0.85019 2.1898 0.629339 2.26178 0.445936 2.39512C0.262532 2.52846 0.125956 2.71634 0.055716 2.93194C-0.0145238 3.14754 -0.0148346 3.37982 0.0548278 3.59561C0.12449 3.8114 0.260563 3.99965 0.443609 4.13348H0.442276Z" fill="#FFE605"/>
  </g>
  <defs>
    <clipPath id="clip0_102_174">
      <rect width="8" height="8" fill="white"/>
    </clipPath>
  </defs>
</svg>