<svg xmlns="http://www.w3.org/2000/svg" width="8" height="8" viewBox="0 0 8 8" fill="none">
<path d="M2.28405 7.81243C2.02965 7.8113 1.78214 7.72962 1.57705 7.5791C1.36745 7.43165 1.21105 7.22049 1.13111 6.97701C1.05117 6.73353 1.05197 6.47075 1.13338 6.22777L1.52338 5.02143L0.496712 4.27077C0.29086 4.12037 0.137851 3.90871 0.0595793 3.66608C-0.0186928 3.42345 -0.0182182 3.16228 0.0609353 2.91994C0.140089 2.6776 0.293865 2.4665 0.500263 2.31685C0.706661 2.1672 0.955103 2.08666 1.21005 2.08677H2.46671L2.84838 0.896766C2.92671 0.653079 3.08036 0.44054 3.2872 0.28976C3.49405 0.138979 3.74341 0.0577393 3.99938 0.0577393C4.25535 0.0577393 4.50471 0.138979 4.71155 0.28976C4.9184 0.44054 5.07205 0.653079 5.15038 0.896766V0.896766L5.53338 2.08677H6.79005C7.04496 2.08673 7.29335 2.16732 7.4997 2.317C7.70604 2.46667 7.85976 2.67777 7.93887 2.9201C8.01798 3.16243 8.01843 3.42356 7.94015 3.66616C7.86187 3.90876 7.70887 4.12038 7.50304 4.27077L6.47671 5.02143L6.86671 6.22777C6.94534 6.4711 6.94477 6.73311 6.86507 6.9761C6.78537 7.21909 6.63065 7.43054 6.42318 7.58003C6.2157 7.72953 5.96615 7.80937 5.71043 7.80806C5.4547 7.80675 5.20599 7.72437 5.00005 7.57277L4.00005 6.83743L3.00005 7.5731C2.79313 7.72743 2.54217 7.81131 2.28405 7.81243V7.81243ZM1.21005 3.08677C1.16605 3.08676 1.12317 3.10066 1.08755 3.12649C1.05193 3.15231 1.02538 3.18874 1.0117 3.23055C0.998019 3.27237 0.997907 3.31744 1.01138 3.35933C1.02485 3.40121 1.05122 3.43777 1.08671 3.46377L2.40538 4.42743C2.49029 4.48952 2.55346 4.5768 2.58589 4.67687C2.61833 4.77693 2.61838 4.88467 2.58605 4.98477L2.08605 6.53477C2.07217 6.57681 2.07203 6.62218 2.08564 6.66431C2.09925 6.70644 2.12591 6.74315 2.16176 6.76913C2.19761 6.7951 2.2408 6.80901 2.28507 6.80882C2.32934 6.80864 2.37241 6.79438 2.40805 6.7681L3.70438 5.81443C3.79026 5.75124 3.89409 5.71716 4.00071 5.71716C4.10733 5.71716 4.21117 5.75124 4.29705 5.81443L5.59338 6.76777C5.62897 6.79429 5.67209 6.80875 5.71648 6.80905C5.76086 6.80935 5.80418 6.79546 5.84012 6.76942C5.87606 6.74338 5.90274 6.70653 5.91628 6.66427C5.92982 6.622 5.9295 6.57651 5.91538 6.53443L5.41538 4.98443C5.38304 4.88434 5.38309 4.7766 5.41553 4.67653C5.44797 4.57647 5.51113 4.48919 5.59604 4.4271L6.91438 3.46343C6.94985 3.43745 6.97621 3.40092 6.98969 3.35907C7.00317 3.31722 7.00308 3.27218 6.98944 3.23038C6.9758 3.18858 6.94931 3.15215 6.91374 3.1263C6.87817 3.10045 6.83535 3.0865 6.79138 3.08643H5.16671C5.06081 3.08641 4.95766 3.05276 4.87211 2.99034C4.78656 2.92791 4.72305 2.83994 4.69071 2.7391L4.20005 1.2021C4.18653 1.16003 4.16001 1.12334 4.12431 1.09731C4.08861 1.07128 4.04556 1.05726 4.00138 1.05726C3.95719 1.05726 3.91415 1.07128 3.87845 1.09731C3.84274 1.12334 3.81623 1.16003 3.80271 1.2021L3.30838 2.73943C3.2761 2.84011 3.21273 2.92797 3.12738 2.99037C3.04204 3.05278 2.93911 3.08653 2.83338 3.08677H1.21005Z" fill="#B0B4B7"/>
</svg>