<svg xmlns="http://www.w3.org/2000/svg" width="46" height="33" viewBox="0 0 46 33" fill="none">
  <path d="M6.9 14.1875C9.43719 14.1875 11.5 12.1135 11.5 9.5625C11.5 7.01152 9.43719 4.9375 6.9 4.9375C4.36281 4.9375 2.3 7.01152 2.3 9.5625C2.3 12.1135 4.36281 14.1875 6.9 14.1875ZM39.1 14.1875C41.6372 14.1875 43.7 12.1135 43.7 9.5625C43.7 7.01152 41.6372 4.9375 39.1 4.9375C36.5628 4.9375 34.5 7.01152 34.5 9.5625C34.5 12.1135 36.5628 14.1875 39.1 14.1875ZM41.4 16.5H36.8C35.535 16.5 34.3922 17.0131 33.5584 17.8441C36.455 19.4412 38.5106 22.3246 38.9562 25.75H43.7C44.9722 25.75 46 24.7166 46 23.4375V21.125C46 18.574 43.9372 16.5 41.4 16.5ZM23 16.5C27.4491 16.5 31.05 12.8795 31.05 8.40625C31.05 3.93301 27.4491 0.3125 23 0.3125C18.5509 0.3125 14.95 3.93301 14.95 8.40625C14.95 12.8795 18.5509 16.5 23 16.5ZM28.52 18.8125H27.9234C26.4284 19.5352 24.7681 19.9688 23 19.9688C21.2319 19.9688 19.5787 19.5352 18.0766 18.8125H17.48C12.9087 18.8125 9.2 22.5414 9.2 27.1375V29.2188C9.2 31.1338 10.7453 32.6875 12.65 32.6875H33.35C35.2547 32.6875 36.8 31.1338 36.8 29.2188V27.1375C36.8 22.5414 33.0912 18.8125 28.52 18.8125ZM12.4416 17.8441C11.6078 17.0131 10.465 16.5 9.2 16.5H4.6C2.06281 16.5 0 18.574 0 21.125V23.4375C0 24.7166 1.02781 25.75 2.3 25.75H7.03656C7.48938 22.3246 9.545 19.4412 12.4416 17.8441Z" fill="#0D0C0C"/>
</svg>