<svg xmlns="http://www.w3.org/2000/svg" width="16" height="15" viewBox="0 0 16 15" fill="none">
<path d="M11.6666 0.27771C10.9159 0.289387 10.1816 0.498945 9.53777 0.885224C8.89398 1.2715 8.36351 1.82082 7.99993 2.47771C7.63636 1.82082 7.10589 1.2715 6.46209 0.885224C5.81829 0.498945 5.08396 0.289387 4.33327 0.27771C3.13656 0.329704 2.00907 0.853213 1.19712 1.73386C0.385171 2.61452 -0.0452355 3.78073 -6.84962e-05 4.97771C-6.84962e-05 8.00904 3.1906 11.3197 5.8666 13.5644C6.46408 14.0665 7.2195 14.3417 7.99993 14.3417C8.78036 14.3417 9.53579 14.0665 10.1333 13.5644C12.8093 11.3197 15.9999 8.00904 15.9999 4.97771C16.0451 3.78073 15.6147 2.61452 14.8027 1.73386C13.9908 0.853213 12.8633 0.329704 11.6666 0.27771Z" fill="white"/>
</svg>